<svg width="400" height="400" viewBox="0 0 400 400" fill="none" xmlns="http://www.w3.org/2000/svg">
<path fill-rule="evenodd" clip-rule="evenodd" d="M226 20.92C230.06 22.1968 233.607 24.7356 236.125 28.1671C238.643 31.5986 240 35.7438 240 40V140H320C323.658 139.998 327.247 141 330.376 142.896C333.504 144.793 336.053 147.511 337.744 150.755C339.435 153.999 340.204 157.645 339.967 161.295C339.73 164.946 338.496 168.462 336.4 171.46L196.4 371.46C193.963 374.951 190.477 377.573 186.447 378.945C182.417 380.317 178.054 380.368 173.994 379.09C169.933 377.811 166.387 375.271 163.87 371.837C161.353 368.404 159.997 364.257 160 360V260H80C76.3416 260.002 72.7529 259 69.6243 257.104C66.4958 255.207 63.9473 252.489 62.2562 249.245C60.5651 246.001 59.7961 242.355 60.0331 238.705C60.27 235.054 61.5037 231.538 63.6 228.54L203.6 28.54C206.04 25.0557 209.528 22.4402 213.556 21.0735C217.584 19.7068 221.943 19.66 226 20.94V20.92Z" fill="#2773F0"/>
</svg>
