<svg width="400" height="400" viewBox="0 0 400 400" fill="none" xmlns="http://www.w3.org/2000/svg">
<path d="M372.164 180.589C372.164 85.274 294.912 8 199.589 8C104.261 8 27 85.274 27 180.589C27 273.852 100.98 349.771 193.458 352.998C206.733 365.922 249.707 402.34 298.354 387.508C298.354 387.508 312.832 383.546 305.113 371.707C300.23 364.217 290.496 347.307 283.81 331.223C336.513 301.694 372.164 245.297 372.164 180.589Z" fill="#FF5A5F"/>
<rect x="117.043" y="113.05" width="170.081" height="45.0214" rx="22.5107" fill="white"/>
<rect x="117.043" y="168.076" width="110.052" height="45.0214" rx="22.5107" fill="white"/>
<rect x="117.043" y="223.102" width="45.0214" height="45.0214" rx="22.5107" fill="white"/>
</svg>
