<svg width="400" height="400" viewBox="0 0 400 400" fill="none" xmlns="http://www.w3.org/2000/svg">
<path fill-rule="evenodd" clip-rule="evenodd" d="M376 180.853C376 83.1832 297.218 4 200.007 4C102.791 4 24 83.1832 24 180.853C24 276.421 99.4453 354.215 193.755 357.522C207.293 370.766 251.118 408.083 300.729 392.885C300.729 392.885 315.493 388.824 307.621 376.693C302.642 369.018 292.715 351.691 285.896 335.209C339.643 304.95 376 247.16 376 180.853ZM278.539 188.599C292.471 188.599 304.079 200.061 300.736 213.585C289.553 258.824 248.693 292.365 199.999 292.365C151.305 292.365 110.444 258.824 99.2612 213.585C95.918 200.061 107.527 188.599 121.458 188.599H278.539ZM236.178 103.46C236.178 124.143 219.411 140.91 198.728 140.91C178.045 140.91 161.278 124.143 161.278 103.46C161.278 82.7767 178.045 66.0097 198.728 66.0097C219.411 66.0097 236.178 82.7767 236.178 103.46ZM255.178 103.46C255.178 134.636 229.905 159.91 198.728 159.91C167.551 159.91 142.278 134.636 142.278 103.46C142.278 72.2833 167.551 47.0097 198.728 47.0097C229.905 47.0097 255.178 72.2833 255.178 103.46Z" fill="url(#paint0_linear_110_8)"/>
<defs>
<linearGradient id="paint0_linear_110_8" x1="78.3394" y1="73.1593" x2="330.277" y2="399.196" gradientUnits="userSpaceOnUse">
<stop stop-color="#8E2DE2"/>
<stop offset="1" stop-color="#4A00E0"/>
</linearGradient>
</defs>
</svg>
