<svg width="400" height="400" viewBox="0 0 400 400" fill="none" xmlns="http://www.w3.org/2000/svg">
<path fill-rule="evenodd" clip-rule="evenodd" d="M34.0582 313.993L11.4104 256.948C10.0424 253.502 12.238 249.669 15.8689 249.156C28.5525 247.364 55.336 243.349 73.4836 239.019C97.9946 233.17 134.236 220.186 134.236 220.186C57.9689 210.073 18.3592 174.863 27.1649 142.987C35.9706 111.11 81.4985 100.429 121.403 111.912C161.307 123.394 195.208 180.69 195.208 180.69C200.798 159.088 216.234 122.758 244.17 100.383C277.745 73.4919 325.33 64.531 341.718 95.8578C375.415 160.274 289.946 199.182 242.999 210.584C242.999 210.584 280.584 229.015 309.545 238.213C332.133 245.388 369.229 253.219 384.461 256.318C387.977 257.034 389.96 260.854 388.533 264.188L364.393 320.582C363.192 323.386 360.048 324.733 357.247 323.597C341.313 317.132 291.196 296.402 264.958 281.007C233.491 262.544 201.088 231.052 201.088 231.052C201.088 231.052 164.812 261.339 132.59 278.524C105.809 292.808 56.8682 311.352 41.1056 317.207C38.2782 318.257 35.182 316.823 34.0582 313.993ZM315.838 129.149C264.38 142.663 227.946 184.308 216.22 203.382C215.674 204.269 214.522 204.54 213.647 203.987C212.771 203.435 212.503 202.268 213.049 201.381C225.081 181.809 262.204 139.325 314.9 125.486C315.899 125.223 316.918 125.831 317.177 126.842C317.436 127.854 316.836 128.887 315.838 129.149ZM57.3077 159.786C56.2773 159.837 55.4829 160.725 55.5333 161.769C55.5837 162.812 56.4598 163.617 57.4902 163.566C118.768 160.53 156.248 190.466 167.183 205.473C167.796 206.314 168.965 206.493 169.795 205.872C170.625 205.251 170.801 204.067 170.188 203.226C158.531 187.227 119.868 156.686 57.3077 159.786Z" fill="#FF385C"/>
</svg>
