<svg width="400" height="400" viewBox="0 0 400 400" fill="none" xmlns="http://www.w3.org/2000/svg">
<path d="M388.026 191.987C392.444 191.987 396.043 195.58 395.866 199.995C391.665 304.537 305.586 388 200.013 388C94.4403 388 8.36133 304.537 4.1606 199.995C3.98321 195.58 7.58172 191.987 12 191.987L200.013 191.987L388.026 191.987Z" fill="#615CCD"/>
<rect x="44.0254" y="12" width="154.987" height="154.987" rx="8" fill="#FFC700"/>
<path d="M279.809 77.6711C282.72 71.9801 290.801 71.834 293.916 77.416L334.684 150.458C337.66 155.791 333.805 162.357 327.698 162.357H249.56C243.581 162.357 239.715 156.036 242.438 150.713L279.809 77.6711Z" fill="#6EDB1B"/>
</svg>
