
<svg width="284px" height="229px" viewBox="0 0 284 229" version="1.1" xmlns="http://www.w3.org/2000/svg" xmlns:xlink="http://www.w3.org/1999/xlink">
    <g id="Page-1" stroke="none" stroke-width="1" fill="none" fill-rule="evenodd">
        <g id="logo-black" fill="#000" fill-rule="nonzero">
            <path d="M43.0888035,53 L51.3359797,87 L34,87 C24.6111593,87 17,79.3888407 17,70 C17,60.6111593 24.6111593,53 34,53 L43.0888035,53 Z M96.8802566,56.9372859 C100.620092,60.0556803 103,64.7499115 103,70 C103,78.6328315 96.5652246,85.7627407 88.2304037,86.8549977 L96.8802566,56.9372859 Z" id="Shape"></path>
            <g id="Group" transform="translate(17.000000, 160.000000)">
                <path d="M54.3096321,-2.22044605e-15 C64.9378395,24.6175728 80.2699805,39.8812092 100.306055,45.7909091 L0,45.7909091 L0,-2.22044605e-15 L54.3096321,-2.22044605e-15 Z M133,39.6320699 L133,45.7909091 L124.556196,45.7909091 C127.656606,44.3929138 130.471211,42.3399667 133,39.6320699 Z" id="Shape"></path>
                <rect id="Rectangle-path" x="0" y="25.091" width="10.565" height="43.909"></rect>
            </g>
            <path d="M170.415976,203.57309 C126.918883,214.418133 82.8658781,187.948417 72.0208348,144.451324 L48.6754844,50.8182381 C46.6713378,42.7800451 51.5628989,34.6391204 59.6010919,32.6349738 L188.009126,0.619255029 C196.047319,-1.38489157 204.188244,3.5066695 206.192391,11.5448625 L229.537741,105.177949 C240.382784,148.675041 213.913068,192.728047 170.415976,203.57309 Z M174.885897,108.004725 C193.851884,108.004725 209.226855,92.650847 209.226855,73.710878 C209.226855,54.7709091 193.851884,39.4170306 174.885897,39.4170306 C155.91991,39.4170306 140.54494,54.7709091 140.54494,73.710878 C140.54494,92.650847 155.91991,108.004725 174.885897,108.004725 Z M207,144 C213.075132,144 218,139.075132 218,133 C218,126.924868 213.075132,122 207,122 C200.924868,122 196,126.924868 196,133 C196,139.075132 200.924868,144 207,144 Z" id="Shape"></path>
            <g id="Group" transform="translate(151.000000, 134.000000)">
                <rect id="Rectangle-path" x="0" y="26.296" width="133" height="45.704"></rect>
                <rect id="Rectangle-path" x="122.435" y="0" width="10.565" height="43.826"></rect>
            </g>
            <rect id="Rectangle-path" x="0" y="94" width="86" height="34" rx="17"></rect>
            <path d="M178.4511,76.7249996 C181.087652,75.9601279 183,73.6862114 183,71 C183,68.3137886 181.087652,66.0398721 178.4511,65.2750004 C180.484,61.5370829 184.445717,59 189,59 C195.627417,59 201,64.372583 201,71 C201,77.627417 195.627417,83 189,83 C184.445717,83 180.484,80.4629171 178.4511,76.7249996 Z" id="Shape"></path>
        </g>
    </g>
</svg>
