<svg width="400" height="400" viewBox="0 0 400 400" fill="none" xmlns="http://www.w3.org/2000/svg">
<path d="M2 126.012C2 57.5223 57.5221 2 126.012 2H273.988C342.478 2 398 57.5221 398 126.012V273.988C398 342.478 342.478 398 273.988 398H126.012C57.5223 398 2 342.478 2 273.988V126.012Z" fill="#2773F0"/>
<mask id="mask0_110_50" style="mask-type:alpha" maskUnits="userSpaceOnUse" x="2" y="2" width="396" height="396">
<rect x="2" y="2" width="396" height="396" rx="124" fill="#2773F0"/>
</mask>
<g mask="url(#mask0_110_50)">
<rect x="21.3546" y="-33.3966" width="579.194" height="77.4302" transform="rotate(45 21.3546 -33.3966)" fill="#FDC803"/>
<rect x="-33.3967" y="376.155" width="579.194" height="77.4302" transform="rotate(-45 -33.3967 376.155)" fill="#FDC803"/>
</g>
<circle cx="200" cy="200" r="142.693" fill="#2773F0"/>
<g filter="url(#filter0_d_110_50)">
<path d="M83.8547 203.128C83.8547 169.587 95.5636 140.954 118.981 117.229C142.501 93.5047 170.776 81.6425 203.807 81.6425C228.145 81.6425 250.489 88.7496 270.839 102.964C291.291 117.178 306.016 136.045 315.015 159.565L267.924 176.745C261.482 161.917 252.738 150.413 241.694 142.232C230.752 134.051 218.225 129.961 204.113 129.961C184.173 129.961 167.657 136.863 154.568 150.669C141.581 164.474 135.087 181.96 135.087 203.128C135.087 222.353 141.683 238.613 154.875 251.907C168.067 265.098 184.479 271.694 204.113 271.694C220.271 271.694 234.127 267.502 245.682 259.116C257.34 250.731 264.856 239.431 268.231 225.217L315.629 243.317C309.8 264.894 295.893 283.352 273.906 298.691C251.92 313.928 228.554 321.546 203.807 321.546C170.47 321.546 142.143 310.042 118.828 287.033C95.5125 264.025 83.8547 236.056 83.8547 203.128Z" fill="white"/>
</g>
<g style="mix-blend-mode:overlay">
<path d="M55.5134 133.822C21.9607 192.75 34.1392 247.553 22.4598 240.903C10.7804 234.253 3.15617 170.627 36.7089 111.699C70.2617 52.7713 132.286 20.8555 143.965 27.5056C155.644 34.1557 89.0662 74.8941 55.5134 133.822Z" fill="white" fill-opacity="0.15"/>
</g>
<g style="mix-blend-mode:overlay">
<path d="M341.372 267.401C375.277 208.675 363.427 153.801 375.067 160.521C386.706 167.241 393.949 230.911 360.043 289.636C326.138 348.362 263.924 379.906 252.285 373.186C240.645 366.466 307.466 326.127 341.372 267.401Z" fill="black" fill-opacity="0.15"/>
</g>
<g style="mix-blend-mode:overlay">
<circle cx="155.754" cy="25.229" r="5.53073" fill="white" fill-opacity="0.15"/>
</g>
<defs>
<filter id="filter0_d_110_50" x="81.8547" y="81.6425" width="235.774" height="243.904" filterUnits="userSpaceOnUse" color-interpolation-filters="sRGB">
<feFlood flood-opacity="0" result="BackgroundImageFix"/>
<feColorMatrix in="SourceAlpha" type="matrix" values="0 0 0 0 0 0 0 0 0 0 0 0 0 0 0 0 0 0 127 0" result="hardAlpha"/>
<feOffset dy="2"/>
<feGaussianBlur stdDeviation="1"/>
<feComposite in2="hardAlpha" operator="out"/>
<feColorMatrix type="matrix" values="0 0 0 0 0 0 0 0 0 0 0 0 0 0 0 0 0 0 0.1 0"/>
<feBlend mode="normal" in2="BackgroundImageFix" result="effect1_dropShadow_110_50"/>
<feBlend mode="normal" in="SourceGraphic" in2="effect1_dropShadow_110_50" result="shape"/>
</filter>
</defs>
</svg>
